<svg xmlns="http://www.w3.org/2000/svg" viewBox="0 0 160 50" fill="none">
  <g stroke="#1f1f1f" stroke-width="2.2" stroke-linecap="round" stroke-linejoin="round" fill="none">
    <path d="M8 34 C 16 14, 28 14, 30 28 C 31 36, 24 40, 22 32 C 21 24, 32 18, 44 22 C 52 25, 50 36, 42 34" />
    <path d="M48 30 C 56 18, 68 18, 70 30 C 71 36, 64 40, 62 32 C 61 24, 72 18, 84 22 C 92 25, 90 36, 82 34" />
    <path d="M88 30 C 96 18, 108 18, 110 30 C 111 36, 104 40, 102 32 C 101 24, 112 18, 124 22 C 132 25, 130 36, 122 34" />
    <path d="M126 32 C 134 24, 146 24, 150 34" />
    <path d="M70 40 C 90 44, 110 42, 130 40" />
  </g>
</svg>
